<?xml version="1.0" standalone="no"?>
<svg viewBox="0 0 200 200" xmlns="http://www.w3.org/2000/svg">
  <!-- Tree trunk -->
  <path fill="#2E3338" d="M88,160 Q90,170 92,180 Q94,190 96,200 L104,200 Q106,190 108,180 Q110,170 112,160 Q110,150 108,140 Q106,130 104,120 Q102,110 100,100 Q98,110 96,120 Q94,130 92,140 Q90,150 88,160 Z" />
  
  <!-- Trunk texture -->
  <path d="M90,120 Q92,125 90,130 Q94,135 92,140 Q96,145 94,150" stroke="#654321" stroke-width="0.5" fill="none"/>
  <path d="M108,125 Q106,130 108,135 Q104,140 106,145 Q102,150 104,155" stroke="#654321" stroke-width="0.5" fill="none"/>
  
  <!-- Main foliage crown - wider and more rounded -->
  <path fill="#43A047" d="M100,35 Q125,30 145,45 Q155,60 150,75 Q160,85 155,100 Q165,110 160,125 Q155,135 140,140 Q120,145 100,140 Q80,145 60,140 Q45,135 40,125 Q35,110 45,100 Q40,85 50,75 Q45,60 55,45 Q75,30 100,35 Z" />
  
  <!-- Darker foliage layers -->
  <path fill="#388E3C" d="M80,40 Q90,35 100,40 Q110,45 105,55 Q100,65 90,60 Q80,55 80,40 Z" />
  <path fill="#388E3C" d="M110,50 Q120,45 130,50 Q140,55 135,65 Q130,75 120,70 Q110,65 110,50 Z" />
  <path fill="#388E3C" d="M70,70 Q80,65 90,70 Q100,75 95,85 Q90,95 80,90 Q70,85 70,70 Z" />
  
  <!-- Branch system -->
  <path fill="#8B4513" d="M82,105 Q72,100 62,105 Q57,110 62,115 Q67,120 77,117 Q82,113 82,105 Z" />
  <path fill="#8B4513" d="M118,105 Q128,100 138,105 Q143,110 138,115 Q133,120 123,117 Q118,113 118,105 Z" />
  
  <!-- Branch foliage -->
  <path fill="#43A047" d="M62,100 Q47,95 37,105 Q32,115 42,125 Q52,130 62,125 Q67,115 62,100 Z" />
  <path fill="#43A047" d="M138,100 Q153,95 163,105 Q168,115 158,125 Q148,130 138,125 Q133,115 138,100 Z" />
  
  <!-- Additional foliage clusters -->
  <path fill="#43A047" d="M75,65 Q65,60 60,70 Q65,80 75,75 Q80,70 75,65 Z" />
  <path fill="#388E3C" d="M70,67 Q65,62 60,67 Q62,72 67,70 Q72,68 70,67 Z" />
  
  <path fill="#43A047" d="M125,65 Q135,60 140,70 Q135,80 125,75 Q120,70 125,65 Z" />
  <path fill="#388E3C" d="M130,67 Q135,62 140,67 Q138,72 133,70 Q128,68 130,67 Z" />
  
  <!-- Individual leaves -->
  <ellipse cx="85" cy="60" rx="2" ry="4" fill="#388E3C" transform="rotate(10 85 60)"/>
  <ellipse cx="115" cy="63" rx="2" ry="4" fill="#388E3C" transform="rotate(-25 115 63)"/>
  <ellipse cx="95" cy="50" rx="1.5" ry="3" fill="#43A047" transform="rotate(50 95 50)"/>
  
  <!-- Tree roots -->
  <path fill="#8B4513" d="M88,190 Q78,195 68,190 Q63,195 68,200 L83,200 Q88,195 88,190 Z" />
  <path fill="#8B4513" d="M112,190 Q122,195 132,190 Q137,195 132,200 L117,200 Q112,195 112,190 Z" />
</svg>
