<?xml version="1.0" standalone="no"?>
<svg viewBox="0 0 200 200" xmlns="http://www.w3.org/2000/svg">
  <!-- Tree trunk -->
  <path fill="#2E3338" d="M90,160 Q92,170 94,180 Q96,190 98,200 L102,200 Q104,190 106,180 Q108,170 110,160 Q108,150 106,140 Q104,130 102,120 Q100,110 98,100 Q96,110 94,120 Q92,130 90,140 Q88,150 90,160 Z" />
  
  <!-- Trunk texture and bark details -->
  <path d="M92,120 Q94,125 92,130 Q96,135 94,140 Q98,145 96,150" stroke="#654321" stroke-width="0.5" fill="none"/>
  <path d="M106,125 Q104,130 106,135 Q102,140 104,145 Q100,150 102,155" stroke="#654321" stroke-width="0.5" fill="none"/>
  
  <!-- Main foliage crown -->
  <path fill="#43A047" d="M100,40 Q120,35 135,50 Q145,65 140,80 Q150,90 145,105 Q155,115 150,130 Q145,140 130,145 Q115,150 100,145 Q85,150 70,145 Q55,140 50,130 Q45,115 55,105 Q50,90 60,80 Q55,65 65,50 Q80,35 100,40 Z" />
  
  <!-- Darker foliage layers for depth -->
  <path fill="#388E3C" d="M85,45 Q95,40 105,45 Q115,50 110,60 Q105,70 95,65 Q85,60 85,45 Z" />
  <path fill="#388E3C" d="M75,75 Q85,70 95,75 Q105,80 100,90 Q95,100 85,95 Q75,90 75,75 Z" />
  <path fill="#388E3C" d="M115,85 Q125,80 135,85 Q145,90 140,100 Q135,110 125,105 Q115,100 115,85 Z" />
  
  <!-- Left branch system -->
  <path fill="#8B4513" d="M85,100 Q75,95 65,100 Q60,105 65,110 Q70,115 80,112 Q85,108 85,100 Z" />
  <!-- Sub-branches from left main branch -->
  <path fill="#A0522D" d="M70,105 Q65,100 60,105 Q58,108 62,110 Q66,108 70,105 Z" />
  <path fill="#A0522D" d="M75,108 Q70,103 65,108 Q63,111 67,113 Q71,111 75,108 Z" />
  
  <!-- Left branch foliage -->
  <path fill="#43A047" d="M65,95 Q50,90 40,100 Q35,110 45,120 Q55,125 65,120 Q70,110 65,95 Z" />
  <path fill="#388E3C" d="M55,100 Q50,95 45,100 Q42,105 47,110 Q52,105 55,100 Z" />
  
  <!-- Right branch system -->
  <path fill="#8B4513" d="M115,100 Q125,95 135,100 Q140,105 135,110 Q130,115 120,112 Q115,108 115,100 Z" />
  <!-- Sub-branches from right main branch -->
  <path fill="#A0522D" d="M130,105 Q135,100 140,105 Q142,108 138,110 Q134,108 130,105 Z" />
  <path fill="#A0522D" d="M125,108 Q130,103 135,108 Q137,111 133,113 Q129,111 125,108 Z" />
  
  <!-- Right branch foliage -->
  <path fill="#43A047" d="M135,95 Q150,90 160,100 Q165,110 155,120 Q145,125 135,120 Q130,110 135,95 Z" />
  <path fill="#388E3C" d="M145,100 Q150,95 155,100 Q158,105 153,110 Q148,105 145,100 Z" />
  
  <!-- Upper branches extending from trunk -->
  <path fill="#A0522D" d="M95,85 Q90,80 85,85 Q83,88 87,90 Q91,88 95,85 Z" />
  <path fill="#A0522D" d="M105,85 Q110,80 115,85 Q117,88 113,90 Q109,88 105,85 Z" />
  <path fill="#A0522D" d="M98,75 Q93,70 88,75 Q86,78 90,80 Q94,78 98,75 Z" />
  <path fill="#A0522D" d="M102,75 Q107,70 112,75 Q114,78 110,80 Q106,78 102,75 Z" />
  
  <!-- Additional foliage clusters with varied colors -->
  <path fill="#43A047" d="M80,70 Q70,65 65,75 Q70,85 80,80 Q85,75 80,70 Z" />
  <path fill="#388E3C" d="M75,72 Q70,67 65,72 Q67,77 72,75 Q77,73 75,72 Z" />
  
  <path fill="#43A047" d="M120,70 Q130,65 135,75 Q130,85 120,80 Q115,75 120,70 Z" />
  <path fill="#388E3C" d="M125,72 Q130,67 135,72 Q133,77 128,75 Q123,73 125,72 Z" />
  
  <path fill="#43A047" d="M100,130 Q110,125 115,135 Q110,145 100,140 Q90,145 85,135 Q90,125 100,130 Z" />
  <path fill="#388E3C" d="M95,132 Q100,127 105,132 Q103,137 98,135 Q93,133 95,132 Z" />
  
  <!-- Individual leaves scattered around -->
  <ellipse cx="88" cy="65" rx="2" ry="4" fill="#388E3C" transform="rotate(15 88 65)"/>
  <ellipse cx="112" cy="68" rx="2" ry="4" fill="#388E3C" transform="rotate(-20 112 68)"/>
  <ellipse cx="70" cy="85" rx="1.5" ry="3" fill="#43A047" transform="rotate(45 70 85)"/>
  <ellipse cx="130" cy="88" rx="1.5" ry="3" fill="#43A047" transform="rotate(-30 130 88)"/>
  <ellipse cx="95" cy="55" rx="2" ry="3.5" fill="#388E3C" transform="rotate(60 95 55)"/>
  <ellipse cx="105" cy="58" rx="2" ry="3.5" fill="#43A047" transform="rotate(-45 105 58)"/>
  
  <!-- Tree roots with brown coloring -->
  <path fill="#8B4513" d="M90,190 Q80,195 70,190 Q65,195 70,200 L85,200 Q90,195 90,190 Z" />
  <path fill="#8B4513" d="M110,190 Q120,195 130,190 Q135,195 130,200 L115,200 Q110,195 110,190 Z" />
  <!-- Additional root details -->
  <path fill="#A0522D" d="M95,195 Q90,198 85,195 Q83,197 87,199 L93,199 Q95,197 95,195 Z" />
  <path fill="#A0522D" d="M105,195 Q110,198 115,195 Q117,197 113,199 L107,199 Q105,197 105,195 Z" />
</svg>
