<?xml version="1.0" standalone="no"?>
<svg viewBox="0 0 200 200" xmlns="http://www.w3.org/2000/svg">
  <!-- Tree trunk -->
  <path fill="#2E3338" d="M91,160 Q93,170 95,180 Q97,190 99,200 L101,200 Q103,190 105,180 Q107,170 109,160 Q107,150 105,140 Q103,130 101,120 Q99,110 97,100 Q95,110 93,120 Q91,130 89,140 Q87,150 91,160 Z" />
  
  <!-- Trunk texture -->
  <path d="M93,120 Q95,125 93,130 Q97,135 95,140 Q99,145 97,150" stroke="#654321" stroke-width="0.5" fill="none"/>
  <path d="M105,125 Q103,130 105,135 Q101,140 103,145 Q99,150 101,155" stroke="#654321" stroke-width="0.5" fill="none"/>
  
  <!-- Main foliage crown - compact and bushy -->
  <path fill="#43A047" d="M100,45 Q118,42 132,52 Q142,67 137,82 Q147,92 142,107 Q152,117 147,132 Q142,142 127,147 Q112,152 100,147 Q88,152 73,147 Q58,142 53,132 Q48,117 58,107 Q53,92 63,82 Q58,67 68,52 Q82,42 100,45 Z" />
  
  <!-- Darker foliage layers -->
  <path fill="#388E3C" d="M88,50 Q98,47 108,50 Q118,55 113,65 Q108,75 98,72 Q88,67 88,50 Z" />
  <path fill="#388E3C" d="M78,85 Q88,82 98,85 Q108,90 103,100 Q98,110 88,107 Q78,102 78,85 Z" />
  <path fill="#388E3C" d="M112,95 Q122,92 132,95 Q142,100 137,110 Q132,120 122,117 Q112,112 112,95 Z" />
  
  <!-- Branch system -->
  <path fill="#8B4513" d="M84,108 Q74,103 64,108 Q59,113 64,118 Q69,123 79,120 Q84,116 84,108 Z" />
  <path fill="#8B4513" d="M116,108 Q126,103 136,108 Q141,113 136,118 Q131,123 121,120 Q116,116 116,108 Z" />
  
  <!-- Branch foliage -->
  <path fill="#43A047" d="M64,103 Q49,98 39,108 Q34,118 44,128 Q54,133 64,128 Q69,118 64,103 Z" />
  <path fill="#43A047" d="M136,103 Q151,98 161,108 Q166,118 156,128 Q146,133 136,128 Q131,118 136,103 Z" />
  
  <!-- Additional foliage clusters -->
  <path fill="#43A047" d="M82,72 Q72,67 67,77 Q72,87 82,82 Q87,77 82,72 Z" />
  <path fill="#388E3C" d="M77,74 Q72,69 67,74 Q69,79 74,77 Q79,75 77,74 Z" />
  
  <path fill="#43A047" d="M118,72 Q128,67 133,77 Q128,87 118,82 Q113,77 118,72 Z" />
  <path fill="#388E3C" d="M123,74 Q128,69 133,74 Q131,79 126,77 Q121,75 123,74 Z" />
  
  <!-- Individual leaves -->
  <ellipse cx="90" cy="62" rx="2" ry="4" fill="#388E3C" transform="rotate(25 90 62)"/>
  <ellipse cx="110" cy="65" rx="2" ry="4" fill="#388E3C" transform="rotate(-30 110 65)"/>
  <ellipse cx="100" cy="55" rx="1.5" ry="3" fill="#43A047" transform="rotate(40 100 55)"/>
  
  <!-- Tree roots -->
  <path fill="#8B4513" d="M91,190 Q81,195 71,190 Q66,195 71,200 L86,200 Q91,195 91,190 Z" />
  <path fill="#8B4513" d="M109,190 Q119,195 129,190 Q134,195 129,200 L114,200 Q109,195 109,190 Z" />
</svg>
