<?xml version="1.0" standalone="no"?>
<svg viewBox="0 0 200 200" xmlns="http://www.w3.org/2000/svg">
  <!-- Tree trunk -->
  <path fill="#2E3338" d="M92,160 Q94,170 96,180 Q98,190 100,200 L102,200 Q104,190 106,180 Q108,170 110,160 Q108,150 106,140 Q104,130 102,120 Q100,110 98,100 Q96,110 94,120 Q92,130 90,140 Q88,150 92,160 Z" />
  
  <!-- Trunk texture -->
  <path d="M94,120 Q96,125 94,130 Q98,135 96,140 Q100,145 98,150" stroke="#654321" stroke-width="0.5" fill="none"/>
  <path d="M106,125 Q104,130 106,135 Q102,140 104,145 Q100,150 102,155" stroke="#654321" stroke-width="0.5" fill="none"/>
  
  <!-- Main foliage crown - taller and more irregular -->
  <path fill="#43A047" d="M100,30 Q115,25 130,35 Q140,50 135,65 Q145,75 140,90 Q150,100 145,115 Q155,125 150,140 Q145,150 130,155 Q115,160 100,155 Q85,160 70,155 Q55,150 50,140 Q45,125 55,115 Q50,100 60,90 Q55,75 65,65 Q60,50 70,35 Q85,25 100,30 Z" />
  
  <!-- Darker foliage layers -->
  <path fill="#388E3C" d="M90,35 Q100,30 110,35 Q120,40 115,50 Q110,60 100,55 Q90,50 90,35 Z" />
  <path fill="#388E3C" d="M75,80 Q85,75 95,80 Q105,85 100,95 Q95,105 85,100 Q75,95 75,80 Z" />
  <path fill="#388E3C" d="M115,90 Q125,85 135,90 Q145,95 140,105 Q135,115 125,110 Q115,105 115,90 Z" />
  <path fill="#388E3C" d="M85,125 Q95,120 105,125 Q115,130 110,140 Q105,150 95,145 Q85,140 85,125 Z" />
  
  <!-- Branch system -->
  <path fill="#8B4513" d="M87,110 Q77,105 67,110 Q62,115 67,120 Q72,125 82,122 Q87,118 87,110 Z" />
  <path fill="#8B4513" d="M113,110 Q123,105 133,110 Q138,115 133,120 Q128,125 118,122 Q113,118 113,110 Z" />
  
  <!-- Branch foliage -->
  <path fill="#43A047" d="M67,105 Q52,100 42,110 Q37,120 47,130 Q57,135 67,130 Q72,120 67,105 Z" />
  <path fill="#43A047" d="M133,105 Q148,100 158,110 Q163,120 153,130 Q143,135 133,130 Q128,120 133,105 Z" />
  
  <!-- Additional foliage clusters -->
  <path fill="#43A047" d="M80,75 Q70,70 65,80 Q70,90 80,85 Q85,80 80,75 Z" />
  <path fill="#388E3C" d="M75,77 Q70,72 65,77 Q67,82 72,80 Q77,78 75,77 Z" />
  
  <path fill="#43A047" d="M120,75 Q130,70 135,80 Q130,90 120,85 Q115,80 120,75 Z" />
  <path fill="#388E3C" d="M125,77 Q130,72 135,77 Q133,82 128,80 Q123,78 125,77 Z" />
  
  <!-- Individual leaves -->
  <ellipse cx="92" cy="65" rx="2" ry="4" fill="#388E3C" transform="rotate(20 92 65)"/>
  <ellipse cx="108" cy="68" rx="2" ry="4" fill="#388E3C" transform="rotate(-15 108 68)"/>
  <ellipse cx="100" cy="45" rx="1.5" ry="3" fill="#43A047" transform="rotate(35 100 45)"/>
  
  <!-- Tree roots -->
  <path fill="#8B4513" d="M92,190 Q82,195 72,190 Q67,195 72,200 L87,200 Q92,195 92,190 Z" />
  <path fill="#8B4513" d="M108,190 Q118,195 128,190 Q133,195 128,200 L113,200 Q108,195 108,190 Z" />
</svg>
