<svg width="1200" height="800" viewBox="0 0 1200 800" fill="none" xmlns="http://www.w3.org/2000/svg">
  <defs>
    <!-- Sky gradient -->
    <linearGradient id="skyGradient" x1="0%" y1="0%" x2="0%" y2="100%">
      <stop offset="0%" stop-color="#87CEEB" stop-opacity="0.3"/>
      <stop offset="50%" stop-color="#B0E0E6" stop-opacity="0.2"/>
      <stop offset="100%" stop-color="#F0F8FF" stop-opacity="0.1"/>
    </linearGradient>
    
    <!-- Mountain gradients -->
    <linearGradient id="mountainGradient1" x1="0%" y1="0%" x2="100%" y2="100%">
      <stop offset="0%" stop-color="#5810FF" stop-opacity="0.6"/>
      <stop offset="50%" stop-color="#6366f1" stop-opacity="0.4"/>
      <stop offset="100%" stop-color="#3b82f6" stop-opacity="0.3"/>
    </linearGradient>
    
    <linearGradient id="mountainGradient2" x1="0%" y1="0%" x2="100%" y2="100%">
      <stop offset="0%" stop-color="#4f46e5" stop-opacity="0.5"/>
      <stop offset="50%" stop-color="#5B28FF" stop-opacity="0.3"/>
      <stop offset="100%" stop-color="#6366f1" stop-opacity="0.2"/>
    </linearGradient>
    
    <!-- Rock face gradient -->
    <linearGradient id="rockGradient" x1="0%" y1="0%" x2="100%" y2="100%">
      <stop offset="0%" stop-color="#5810FF" stop-opacity="0.4"/>
      <stop offset="30%" stop-color="#6366f1" stop-opacity="0.3"/>
      <stop offset="70%" stop-color="#3b82f6" stop-opacity="0.25"/>
      <stop offset="100%" stop-color="#5B28FF" stop-opacity="0.2"/>
    </linearGradient>
    
    <!-- Valley gradient -->
    <linearGradient id="valleyGradient" x1="0%" y1="0%" x2="0%" y2="100%">
      <stop offset="0%" stop-color="#1e40af" stop-opacity="0.3"/>
      <stop offset="100%" stop-color="#3b82f6" stop-opacity="0.1"/>
    </linearGradient>
  </defs>
  
  <!-- Sky background -->
  <rect width="1200" height="300" fill="url(#skyGradient)"/>
  
  <!-- Distant mountain layers -->
  <g opacity="0.6">
    <!-- Far background mountains -->
    <path d="M0 200 Q100 180 200 190 Q300 200 400 185 Q500 170 600 175 Q700 180 800 170 Q900 160 1000 165 Q1100 170 1200 160 L1200 300 L0 300 Z" 
          fill="url(#mountainGradient2)"/>
    
    <!-- Mid-distance mountains -->
    <path d="M0 250 Q150 230 300 240 Q450 250 600 235 Q750 220 900 225 Q1050 230 1200 220 L1200 350 L0 350 Z" 
          fill="url(#mountainGradient1)"/>
  </g>
  
  <!-- Main El Capitan cliff formation -->
  <g opacity="0.8">
    <!-- Left cliff face (El Capitan) -->
    <path d="M0 800 L0 400 Q50 380 100 370 Q150 360 200 350 Q250 340 300 330 Q350 320 400 315 Q450 310 500 320 Q550 330 600 350 Q650 370 700 400 L700 500 Q680 520 660 540 Q640 560 620 580 Q600 600 580 620 Q560 640 540 660 Q520 680 500 700 Q480 720 460 740 Q440 760 420 780 Q400 800 380 800 L0 800 Z" 
          fill="url(#rockGradient)" 
          stroke="#5810FF" 
          stroke-width="1.5" 
          opacity="0.7"/>
    
    <!-- Right cliff face (Half Dome area) -->
    <path d="M700 400 Q750 390 800 385 Q850 380 900 385 Q950 390 1000 400 Q1050 410 1100 430 Q1150 450 1200 480 L1200 800 L700 800 L700 500 Z" 
          fill="url(#rockGradient)" 
          stroke="#6366f1" 
          stroke-width="1.2" 
          opacity="0.6"/>
  </g>
  
  <!-- Valley floor and foreground rocks -->
  <g opacity="0.7">
    <!-- Valley floor -->
    <path d="M380 800 Q420 780 460 770 Q500 760 540 750 Q580 740 620 730 Q660 720 700 715 Q740 710 780 715 Q820 720 860 730 Q900 740 940 750 Q980 760 1020 770 Q1060 780 1100 790 L1200 800 L380 800 Z" 
          fill="url(#valleyGradient)"/>
    
    <!-- Foreground rocks/boulders -->
    <ellipse cx="450" cy="750" rx="40" ry="25" fill="#5810FF" opacity="0.4"/>
    <ellipse cx="550" cy="760" rx="35" ry="20" fill="#6366f1" opacity="0.3"/>
    <ellipse cx="650" cy="745" rx="30" ry="18" fill="#3b82f6" opacity="0.35"/>
    <ellipse cx="750" cy="755" rx="25" ry="15" fill="#5B28FF" opacity="0.3"/>
  </g>
  
  <!-- Rock face details and contours -->
  <g opacity="0.5">
    <!-- Vertical granite fractures -->
    <path d="M150 800 Q155 700 160 600 Q165 500 170 400 Q175 380 180 360" 
          stroke="#5810FF" 
          stroke-width="1.5" 
          fill="none" 
          opacity="0.4"/>
    
    <path d="M250 800 Q255 720 260 640 Q265 560 270 480 Q275 440 280 400" 
          stroke="#6366f1" 
          stroke-width="1.2" 
          fill="none" 
          opacity="0.3"/>
    
    <path d="M350 800 Q355 740 360 680 Q365 620 370 560 Q375 520 380 480" 
          stroke="#3b82f6" 
          stroke-width="1" 
          fill="none" 
          opacity="0.35"/>
    
    <!-- Horizontal rock ledges -->
    <path d="M0 600 Q100 590 200 585 Q300 580 400 575 Q500 570 600 568" 
          stroke="#5810FF" 
          stroke-width="1" 
          fill="none" 
          opacity="0.3"/>
    
    <path d="M0 650 Q80 645 160 642 Q240 639 320 637 Q400 635 480 634" 
          stroke="#6366f1" 
          stroke-width="0.8" 
          fill="none" 
          opacity="0.25"/>
    
    <path d="M0 700 Q60 698 120 696 Q180 694 240 693 Q300 692 360 691" 
          stroke="#3b82f6" 
          stroke-width="0.6" 
          fill="none" 
          opacity="0.2"/>
    
    <!-- Right side cliff details -->
    <path d="M800 800 Q805 650 810 500 Q815 450 820 400" 
          stroke="#5B28FF" 
          stroke-width="1" 
          fill="none" 
          opacity="0.3"/>
    
    <path d="M900 800 Q905 680 910 560 Q915 520 920 480" 
          stroke="#6366f1" 
          stroke-width="0.8" 
          fill="none" 
          opacity="0.25"/>
    
    <path d="M1000 800 Q1005 720 1010 640 Q1015 600 1020 560" 
          stroke="#3b82f6" 
          stroke-width="0.6" 
          fill="none" 
          opacity="0.2"/>
  </g>
  
  <!-- Atmospheric depth lines -->
  <g opacity="0.3">
    <path d="M0 300 Q200 290 400 295 Q600 300 800 292 Q1000 284 1200 280" 
          stroke="#5810FF" 
          stroke-width="0.5" 
          fill="none"/>
    
    <path d="M0 350 Q150 345 300 348 Q450 351 600 347 Q750 343 900 345 Q1050 347 1200 344" 
          stroke="#6366f1" 
          stroke-width="0.4" 
          fill="none"/>
  </g>
  
  <!-- Subtle geometric accents -->
  <g opacity="0.2">
    <circle cx="100" cy="150" r="2" fill="#5810FF"/>
    <circle cx="1100" cy="180" r="1.5" fill="#6366f1"/>
    <circle cx="600" cy="120" r="1" fill="#3b82f6"/>
  </g>
</svg>
