<svg width="1515" height="660" viewBox="0 0 1515 660" fill="none" xmlns="http://www.w3.org/2000/svg">
<g opacity="0.9">
<mask id="mask0_168_4188" style="mask-type:alpha" maskUnits="userSpaceOnUse" x="374" y="-108" width="768" height="768">
<rect width="768" height="768" transform="translate(374 -108)" fill="url(#paint0_radial_168_4188)"/>
</mask>
<g mask="url(#mask0_168_4188)">
<!-- Main cliff face structure -->
<g clip-path="url(#clip0_168_4188)">
<!-- Vertical granite cracks and fractures -->
<g opacity="0.7">
<path d="M400 -108 Q405 100 398 300 Q402 500 396 660" stroke="#4A5568" stroke-width="2" fill="none"/>
<path d="M450 -108 Q455 80 448 250 Q452 450 446 660" stroke="#2D3748" stroke-width="1.5" fill="none"/>
<path d="M520 -108 Q525 120 518 320 Q522 520 516 660" stroke="#4A5568" stroke-width="3" fill="none"/>
<path d="M600 -108 Q605 90 598 290 Q602 490 596 660" stroke="#2D3748" stroke-width="2.5" fill="none"/>
<path d="M680 -108 Q685 110 678 310 Q682 510 676 660" stroke="#4A5568" stroke-width="1.8" fill="none"/>
<path d="M750 -108 Q755 130 748 330 Q752 530 746 660" stroke="#2D3748" stroke-width="2.2" fill="none"/>
<path d="M820 -108 Q825 85 818 285 Q822 485 816 660" stroke="#4A5568" stroke-width="2.8" fill="none"/>
<path d="M890 -108 Q895 105 888 305 Q892 505 886 660" stroke="#2D3748" stroke-width="1.6" fill="none"/>
<path d="M960 -108 Q965 95 958 295 Q962 495 956 660" stroke="#4A5568" stroke-width="2.4" fill="none"/>
<path d="M1030 -108 Q1035 125 1028 325 Q1032 525 1026 660" stroke="#2D3748" stroke-width="2" fill="none"/>
<path d="M1100 -108 Q1105 115 1098 315 Q1102 515 1096 660" stroke="#4A5568" stroke-width="1.9" fill="none"/>
</g>

<!-- Horizontal rock layers and ledges -->
<g opacity="0.4">
<path d="M374 50 Q600 55 800 52 Q1000 49 1142 54" stroke="#718096" stroke-width="1.2" fill="none"/>
<path d="M374 150 Q550 148 750 152 Q950 155 1142 153" stroke="#4A5568" stroke-width="0.8" fill="none"/>
<path d="M374 280 Q620 275 820 278 Q1020 281 1142 279" stroke="#718096" stroke-width="1.5" fill="none"/>
<path d="M374 420 Q580 425 780 422 Q980 419 1142 424" stroke="#4A5568" stroke-width="1" fill="none"/>
<path d="M374 550 Q640 545 840 548 Q1040 551 1142 549" stroke="#718096" stroke-width="1.3" fill="none"/>
</g>

<!-- Rock texture details -->
<g opacity="0.6">
<!-- Granite texture spots -->
<circle cx="450" cy="120" r="3" fill="#718096" opacity="0.5"/>
<circle cx="520" cy="180" r="2" fill="#4A5568" opacity="0.6"/>
<circle cx="680" cy="240" r="4" fill="#718096" opacity="0.4"/>
<circle cx="820" cy="160" r="2.5" fill="#4A5568" opacity="0.7"/>
<circle cx="950" cy="300" r="3.5" fill="#718096" opacity="0.5"/>
<circle cx="1050" cy="220" r="2" fill="#4A5568" opacity="0.6"/>

<!-- Rock face shadows and highlights -->
<path d="M480 100 L485 180 L490 100" fill="#2D3748" opacity="0.3"/>
<path d="M650 200 L655 280 L660 200" fill="#2D3748" opacity="0.4"/>
<path d="M850 150 L855 230 L860 150" fill="#2D3748" opacity="0.3"/>
<path d="M1000 250 L1005 330 L1010 250" fill="#2D3748" opacity="0.4"/>

<!-- Weathering patterns -->
<ellipse cx="550" cy="200" rx="15" ry="8" fill="#4A5568" opacity="0.2"/>
<ellipse cx="750" cy="350" rx="20" ry="12" fill="#718096" opacity="0.15"/>
<ellipse cx="920" cy="450" rx="18" ry="10" fill="#4A5568" opacity="0.18"/>
</g>

<!-- Cliff edge definition -->
<rect x="374.5" y="-107.5" width="767" height="767" stroke="#2D3748" stroke-width="2" opacity="0.6"/>
</g>

<!-- Accent lighting and atmospheric effects -->
<g opacity="0.3">
<!-- Sunlight hitting cliff face -->
<path d="M600 -108 L620 200 L600 400 L580 200 Z" fill="url(#sunlight)" opacity="0.2"/>
<path d="M800 -108 L820 300 L800 500 L780 300 Z" fill="url(#sunlight)" opacity="0.15"/>

<!-- Morning light streaks -->
<path d="M500 50 Q505 150 500 250" stroke="url(#morning_light)" stroke-width="1" opacity="0.4"/>
<path d="M700 80 Q705 180 700 280" stroke="url(#morning_light)" stroke-width="1.2" opacity="0.3"/>
<path d="M900 120 Q905 220 900 320" stroke="url(#morning_light)" stroke-width="0.8" opacity="0.5"/>
</g>
</g>
</g>

<defs>
<radialGradient id="paint0_radial_168_4188" cx="0" cy="0" r="1" gradientUnits="userSpaceOnUse" gradientTransform="translate(384 384) rotate(90) scale(384 384)">
<stop stop-color="#1A202C" stop-opacity="0.8"/>
<stop offset="1" stop-opacity="0"/>
</radialGradient>

<linearGradient id="sunlight" x1="0%" y1="0%" x2="100%" y2="100%">
<stop offset="0%" stop-color="#F7FAFC" stop-opacity="0.3"/>
<stop offset="50%" stop-color="#E2E8F0" stop-opacity="0.2"/>
<stop offset="100%" stop-color="#CBD5E0" stop-opacity="0.1"/>
</linearGradient>

<linearGradient id="morning_light" x1="0%" y1="0%" x2="0%" y2="100%">
<stop offset="0%" stop-color="#FBD38D" stop-opacity="0.4"/>
<stop offset="50%" stop-color="#F6E05E" stop-opacity="0.3"/>
<stop offset="100%" stop-color="#ECC94B" stop-opacity="0.2"/>
</linearGradient>

<clipPath id="clip0_168_4188">
<rect width="768" height="768" fill="white" transform="translate(374 -108)"/>
</clipPath>
</defs>
</svg>